<?xml version="1.0" standalone="no"?>
<!DOCTYPE svg PUBLIC "-//W3C//DTD SVG 20010904//EN"
 "http://www.w3.org/TR/2001/REC-SVG-20010904/DTD/svg10.dtd">
<svg version="1.0" xmlns="http://www.w3.org/2000/svg"
 width="500.000000pt" height="500.000000pt" viewBox="0 0 500.000000 500.000000"
 preserveAspectRatio="xMidYMid meet">
<metadata>
Created by potrace 1.14, written by Peter Selinger 2001-2017
</metadata>
<g transform="translate(0.000000,500.000000) scale(0.100000,-0.100000)"
fill="#000000" stroke="none">
<path d="M2440 4842 c-14 -9 -27 -19 -30 -22 -3 -3 -43 -35 -90 -72 -47 -36
-94 -74 -105 -84 -11 -11 -56 -50 -100 -89 -43 -38 -126 -117 -183 -174 l-104
-104 6 -51 c3 -28 8 -62 10 -76 3 -14 19 -122 36 -240 17 -118 35 -240 40
-270 5 -30 12 -71 14 -90 3 -19 8 -51 11 -71 5 -34 3 -39 -37 -68 -204 -149
-329 -382 -329 -615 0 -70 3 -89 22 -175 10 -46 69 -205 74 -199 1 2 13 28 26
58 50 120 150 239 262 311 33 21 63 39 66 39 4 0 14 -23 24 -50 13 -35 28 -57
51 -72 l34 -22 -34 -44 c-48 -63 -82 -139 -99 -224 -16 -73 -21 -204 -11 -249
7 -27 3 -33 -38 -69 l-28 -25 6 105 c3 58 8 116 11 130 2 14 7 37 11 52 3 15
5 30 5 33 0 2 6 23 15 46 18 54 13 60 -12 12 -10 -21 -25 -46 -33 -55 -8 -10
-11 -18 -8 -18 3 0 -3 -19 -13 -43 -17 -39 -29 -80 -45 -162 -3 -16 -8 -68
-12 -114 -5 -70 -11 -92 -34 -126 -41 -61 -89 -176 -104 -250 -3 -16 -9 -61
-12 -100 -3 -38 -7 -72 -9 -74 -2 -2 -31 2 -66 9 -66 14 -207 18 -273 7 -162
-26 -317 -107 -434 -227 -94 -96 -151 -193 -188 -319 -18 -60 -18 -61 -48 -55
-48 11 -154 12 -199 2 -147 -32 -282 -154 -326 -296 -20 -64 -29 -199 -15
-222 4 -6 -2 -21 -13 -33 -49 -54 -143 -239 -128 -254 2 -2 39 5 82 16 88 22
339 76 396 85 21 3 57 10 81 16 24 5 64 12 88 15 24 3 55 7 69 10 50 9 205 33
270 41 19 2 53 6 75 9 22 3 63 7 90 10 28 3 68 7 90 10 112 12 233 22 475 40
361 26 1134 26 1570 0 91 -6 233 -16 275 -20 22 -2 67 -7 100 -9 73 -6 134
-13 290 -32 113 -14 156 -20 215 -29 14 -2 48 -7 75 -11 48 -6 59 -8 115 -18
14 -3 41 -7 60 -10 19 -3 81 -14 138 -25 56 -12 117 -23 135 -26 17 -4 79 -17
137 -31 58 -14 116 -28 129 -30 14 -3 28 -7 33 -10 16 -10 -3 60 -33 122 -61
130 -204 245 -385 314 l-31 11 5 89 c6 117 -19 204 -86 291 -82 109 -193 168
-331 179 l-74 5 -13 61 c-15 76 -51 166 -95 241 -44 73 -167 199 -243 247 -62
39 -179 90 -231 101 -85 17 -130 22 -197 21 l-73 -1 -34 65 c-27 53 -34 79
-37 140 -5 86 -17 160 -44 260 -19 71 -143 317 -194 383 -24 32 -27 40 -15 48
8 5 16 9 19 9 13 0 50 69 50 91 0 14 3 28 6 32 17 17 161 -81 231 -155 35 -38
119 -162 120 -178 0 -3 8 -23 18 -45 l16 -40 15 35 c79 184 99 363 59 520 -23
92 -86 216 -150 293 -54 66 -182 177 -204 177 -15 0 -14 41 4 153 7 50 16 110
19 132 7 53 36 261 40 283 2 9 7 44 11 77 5 33 9 67 10 75 1 8 5 38 9 66 l7
51 -117 114 c-136 133 -113 112 -239 221 -55 47 -142 118 -194 157 -100 75
-126 83 -171 53z m590 -2549 c14 -115 19 -213 10 -213 -3 0 -21 15 -39 34
l-33 34 16 49 c9 26 19 81 23 121 3 39 7 72 8 72 1 0 8 -44 15 -97z m574
-1816 c-11 -5 -28 -17 -39 -26 -11 -9 -7 -1 9 16 16 18 33 30 39 26 5 -3 1
-10 -9 -16z"/>
</g>
</svg>
